<svg xmlns="http://www.w3.org/2000/svg" viewBox="0 0 395.32 144"><script xmlns=""/><defs><style>.fc730a55-5ba6-4148-834b-cccb305d9fff{fill:#6e6e70;}.bbbc6f9e-d81b-40a9-a802-4c51599c58ab,.fc730a55-5ba6-4148-834b-cccb305d9fff,.ff6be4b2-debd-49df-b131-9e9da410da4b{fill-rule:evenodd;}.ff6be4b2-debd-49df-b131-9e9da410da4b{fill:#00a4f0;}.bbbc6f9e-d81b-40a9-a802-4c51599c58ab{fill:#fffffe;}</style></defs><title>Asset 1</title><g id="e99f56ed-25cc-4242-8691-66f96bd950d6" data-name="Layer 2"><g id="a8436300-7b69-4772-9f7f-6b3ada40245d" data-name="Layer 1"><g id="b9840d81-85dd-4615-86f4-4b032767d44a" data-name="A-LIT-color"><polygon id="b54ad500-a4c8-4cb7-9ddb-bbd834226be9" data-name="Fill-1" class="fc730a55-5ba6-4148-834b-cccb305d9fff" points="180.15 59.84 180.15 89.25 174.28 89.25 174.28 59.84 163.18 59.84 163.18 54.49 191.25 54.49 191.25 59.84 180.15 59.84"/><g id="f2f3ed37-fbc8-4909-97cb-363b8964e4ba" data-name="Group-14"><path id="bb9ed370-9ea9-4fa1-8e73-e934ab0f9fcc" data-name="Fill-3" class="fc730a55-5ba6-4148-834b-cccb305d9fff" d="M218.47,64.86a7.29,7.29,0,0,0-.38-2.53,3.5,3.5,0,0,0-1.17-1.61,4.78,4.78,0,0,0-2-.85,14.83,14.83,0,0,0-2.95-.26h-5.83v10.8h5.5a15.23,15.23,0,0,0,3.3-.29,4.79,4.79,0,0,0,2.11-.94,3.47,3.47,0,0,0,1.12-1.7,8.94,8.94,0,0,0,.33-2.62Zm1.33,24.39L211,75.56h-4.85V89.25h-5.85V54.49H212a24.61,24.61,0,0,1,5.46.54,10.11,10.11,0,0,1,3.91,1.73,7.39,7.39,0,0,1,2.33,3.12,12.45,12.45,0,0,1,.78,4.68,14.79,14.79,0,0,1-.54,4.25,9,9,0,0,1-1.51,3,7.35,7.35,0,0,1-2.29,2,11.18,11.18,0,0,1-2.89,1l9.34,14.44Z"/><path id="bd2873f6-6845-49c8-8a84-b900da599c21" data-name="Fill-5" class="fc730a55-5ba6-4148-834b-cccb305d9fff" d="M242.49,76h10.35l-5.15-15.65ZM232.32,89.25,244,54.49h7.61l11.73,34.76h-6.08l-2.66-8H240.81l-2.64,8Z"/><polygon id="e00d05ac-569a-41aa-8692-348304234b13" data-name="Fill-6" class="fc730a55-5ba6-4148-834b-cccb305d9fff" points="292.18 89.25 278.04 61.95 278.04 89.25 272.34 89.25 272.34 54.49 280.3 54.49 293.44 79.88 293.44 54.49 299.14 54.49 299.14 89.25 292.18 89.25"/><path id="b48b8b82-77ab-443b-b78f-16a4ff460921" data-name="Fill-7" class="fc730a55-5ba6-4148-834b-cccb305d9fff" d="M335.49,79.48a10.56,10.56,0,0,1-1,4.94,8.94,8.94,0,0,1-2.82,3.24,11.94,11.94,0,0,1-4.16,1.78,22.61,22.61,0,0,1-5,.54,20.57,20.57,0,0,1-4.93-.53A14.71,14.71,0,0,1,313.82,88a11.49,11.49,0,0,1-2.7-2.11,16.26,16.26,0,0,1-1.95-2.59L313.8,80a14,14,0,0,0,1.39,1.85A8.72,8.72,0,0,0,317,83.35a9.1,9.1,0,0,0,2.38,1,11.37,11.37,0,0,0,3.14.39,13.25,13.25,0,0,0,2.6-.25,7,7,0,0,0,2.24-.83,4.55,4.55,0,0,0,1.57-1.51,4.18,4.18,0,0,0,.59-2.31,4,4,0,0,0-.56-2.18,4.89,4.89,0,0,0-1.52-1.48,9.25,9.25,0,0,0-2.24-1q-1.28-.4-2.73-.78-2.67-.68-4.95-1.39a16,16,0,0,1-4-1.82,8.18,8.18,0,0,1-2.65-2.81,8.86,8.86,0,0,1-1-4.37,10.72,10.72,0,0,1,.81-4.26,8.54,8.54,0,0,1,2.36-3.24A10.56,10.56,0,0,1,317,54.48a18,18,0,0,1,5.33-.72,19,19,0,0,1,4.14.42,14,14,0,0,1,3.39,1.2,11.57,11.57,0,0,1,2.72,2A13.37,13.37,0,0,1,334.64,60l-4.55,3.39a9.57,9.57,0,0,0-3.26-3.31,8.93,8.93,0,0,0-4.6-1.11,7.91,7.91,0,0,0-4.65,1.21,3.91,3.91,0,0,0-1.72,3.41,3.41,3.41,0,0,0,.46,1.85,4,4,0,0,0,1.43,1.29,11.63,11.63,0,0,0,2.44,1c1,.3,2.14.6,3.48.92,1,.25,2,.52,3,.8a24.73,24.73,0,0,1,2.79,1,13.07,13.07,0,0,1,2.42,1.33,7.91,7.91,0,0,1,1.9,1.84A8.41,8.41,0,0,1,335,76.13a11.27,11.27,0,0,1,.45,3.35"/><polygon id="f152348f-b1e3-4a0a-966c-9bd0aef231fd" data-name="Fill-8" class="fc730a55-5ba6-4148-834b-cccb305d9fff" points="359.9 89.25 344.4 89.25 344.4 84.53 349.2 84.53 349.2 59.21 344.4 59.21 344.4 54.49 359.9 54.49 359.9 59.21 355.05 59.21 355.05 84.53 359.9 84.53 359.9 89.25"/><polygon id="af7b70bc-bb4a-4fbb-afe3-1d049799b2ef" data-name="Fill-9" class="fc730a55-5ba6-4148-834b-cccb305d9fff" points="384.22 59.84 384.22 89.25 378.35 89.25 378.35 59.84 367.25 59.84 367.25 54.49 395.32 54.49 395.32 59.84 384.22 59.84"/><path id="e618982a-d048-42fd-a562-5219f4a89e81" data-name="Fill-10" class="ff6be4b2-debd-49df-b131-9e9da410da4b" d="M144,72A72,72,0,1,1,72,0a72,72,0,0,1,72,72"/><path id="e589e8a7-2639-4120-9b3d-375a3a949714" data-name="Fill-11" class="bbbc6f9e-d81b-40a9-a802-4c51599c58ab" d="M91.88,54.84h50.05q-.6-2.4-1.33-4.75H91.88a6,6,0,0,0-6,6v4.69a6,6,0,0,0,6,6l6.75,0V87.94a6,6,0,0,0,6,6h5.21a6,6,0,0,0,6-6V62h-1.15A3.59,3.59,0,0,0,111,65.55V66.7h0V87.94a1.22,1.22,0,0,1-1.22,1.22h-5.21a1.22,1.22,0,0,1-1.21-1.22V66.73A4.77,4.77,0,0,0,98.61,62H91.88a1.22,1.22,0,0,1-1.22-1.22V56.06a1.22,1.22,0,0,1,1.22-1.22"/><path id="a76512f2-6c7d-4850-bb73-14149e1ff659" data-name="Fill-12" class="bbbc6f9e-d81b-40a9-a802-4c51599c58ab" d="M76.18,94V56.13a6,6,0,0,0-6-6H65a6,6,0,0,0-6,6V94h4.75V56.13A1.24,1.24,0,0,1,65,54.91h5.18a1.24,1.24,0,0,1,1.22,1.22V94Z"/><path id="b74d384a-043b-402d-a5e1-2ef42618ab00" data-name="Fill-13" class="bbbc6f9e-d81b-40a9-a802-4c51599c58ab" d="M44.48,89.16H2.07c.4,1.6.84,3.19,1.33,4.75H44.48a6,6,0,0,0,6-6V83.25a6,6,0,0,0-6-6l-6.74,0V56.06a6,6,0,0,0-6-6H25.37a3.59,3.59,0,0,0-3.59,3.59v1.15h10A1.22,1.22,0,0,1,33,56.06V77.27A4.77,4.77,0,0,0,37.76,82h6.72a1.22,1.22,0,0,1,1.21,1.22v4.69a1.22,1.22,0,0,1-1.21,1.22"/></g></g></g></g></svg>